<?xml version="1.0" standalone="no"?>
<!DOCTYPE svg PUBLIC "-//W3C//DTD SVG 20010904//EN"
 "http://www.w3.org/TR/2001/REC-SVG-20010904/DTD/svg10.dtd">
<svg version="1.0" xmlns="http://www.w3.org/2000/svg"
 width="1890.000000pt" height="1417.000000pt" viewBox="0 0 1890.000000 1417.000000"
 preserveAspectRatio="xMidYMid meet">

<g transform="translate(0.000000,1417.000000) scale(0.100000,-0.100000)"
fill="#000000" stroke="none">
<path d="M1070 6915 l0 -5285 1340 0 1340 0 0 405 0 405 -857 2 -858 3 -3
4478 -2 4477 860 0 860 0 0 400 0 400 -1340 0 -1340 0 0 -5285z"/>
<path d="M5250 7875 l0 -4325 466 0 465 0 -4 3118 c-3 2007 -8 3206 -15 3367
-22 497 -33 714 -47 909 -20 264 -20 266 5 266 12 0 25 -10 31 -22 5 -13 659
-1735 1454 -3828 l1444 -3805 411 0 412 0 1470 3823 c1412 3668 1472 3822
1496 3822 l25 0 -6 -87 c-6 -84 -23 -378 -49 -858 -8 -157 -13 -1146 -15
-3462 l-4 -3243 496 0 495 0 0 4325 0 4325 -741 -2 -741 -3 -1391 -3597
c-1127 -2916 -1394 -3598 -1409 -3598 -10 0 -24 12 -31 28 -8 15 -625 1635
-1373 3599 l-1359 3573 -742 0 -743 0 0 -4325z"/>
<path d="M15260 11800 l0 -400 863 -2 862 -3 0 -4475 0 -4475 -862 -3 -863 -2
0 -405 0 -405 1345 0 1345 0 0 5285 0 5285 -1345 0 -1345 0 0 -400z"/>
</g>
</svg>
